<svg width="24" height="24" viewBox="0 0 24 24" fill="none" xmlns="http://www.w3.org/2000/svg">
<rect y="2.59457" width="22" height="21.4054" rx="2" fill="#D62300"></rect>
<path d="M7.05849 16.8757H7.31449C7.55449 16.8757 7.69849 16.7477 7.68249 16.4917C7.64249 15.8037 7.61849 15.2597 7.61849 14.4437V13.7077C7.61849 12.8917 7.64249 12.2917 7.68249 11.6037C7.69849 11.3477 7.53049 11.2197 7.29849 11.2197C7.07449 11.2197 6.95449 11.3157 6.85049 11.6197C6.70649 12.0517 6.47449 12.2837 5.98649 12.2997C5.78649 12.3077 5.69049 12.4277 5.69049 12.5957V12.7637C5.69049 12.9317 5.81849 13.0597 5.98649 13.0597C6.33849 13.0597 6.53849 13.0117 6.74649 12.8277C6.75449 13.0357 6.75449 13.4357 6.75449 13.5797V14.4437C6.75449 15.2597 6.73049 15.8037 6.69049 16.4917C6.67449 16.7477 6.81849 16.8757 7.05849 16.8757ZM11.6701 16.0677C10.9901 16.0997 10.3981 16.1077 9.75805 16.1077C11.2461 15.0677 11.9501 14.0517 11.9501 12.8837C11.9501 11.8197 11.2461 11.1637 10.182 11.1637C9.32605 11.1637 8.67805 11.6437 8.49405 12.4437C8.46205 12.5877 8.53405 12.7317 8.67805 12.7797L8.86205 12.8437C9.03005 12.8997 9.18205 12.8197 9.23805 12.6437C9.38205 12.2117 9.66205 11.9317 10.182 11.9317C10.758 11.9317 11.0861 12.3077 11.0861 12.9797C11.0861 13.8117 10.6061 14.7397 8.83005 15.9957C8.67805 16.0997 8.60605 16.2757 8.60605 16.4437V16.5477C8.60605 16.7317 8.75005 16.8757 8.93405 16.8757H11.686C11.8621 16.8757 11.998 16.7397 11.998 16.5637V16.3797C11.998 16.1957 11.8541 16.0597 11.6701 16.0677ZM14.4051 16.9877C15.5251 16.9877 16.2691 16.1077 16.2691 15.1237C16.2691 14.1157 15.5731 13.6357 14.8691 13.4437C15.1171 13.0997 15.4851 12.6277 15.7971 12.2677C15.9251 12.1237 15.9891 11.9637 15.9891 11.7797V11.6037C15.9891 11.4197 15.8451 11.2757 15.6611 11.2757H13.0051C12.8211 11.2757 12.6771 11.4197 12.6771 11.6037V11.7477C12.6771 11.9317 12.8211 12.0837 13.0051 12.0757C13.6371 12.0517 14.4291 12.0437 15.0611 12.0437C14.7731 12.4517 14.4371 12.8677 14.0531 13.3157C13.9651 13.4117 13.8931 13.5637 13.9251 13.6917L13.9411 13.7557C13.9891 13.9477 14.1491 14.0437 14.3571 14.0757C15.1011 14.1797 15.4051 14.5717 15.4051 15.1637C15.4051 15.8837 14.9491 16.2197 14.4211 16.2197C13.8131 16.2197 13.5091 15.9237 13.3171 15.3717C13.2531 15.1957 13.0851 15.1077 12.8851 15.1957L12.7171 15.2757C12.5411 15.3477 12.4851 15.4917 12.5331 15.6517C12.7731 16.4597 13.4691 16.9877 14.4051 16.9877Z" fill="#F5EBDC"></path>
<ellipse cx="19.7894" cy="4.32433" rx="4.21053" ry="4.32433" fill="#502314"></ellipse>
</svg>
