<svg width="26" height="24" viewBox="0 0 26 24" fill="none" xmlns="http://www.w3.org/2000/svg">
<path d="M24.8778 5.71737C23.8203 5.64608 22.4261 5.62628 20.9686 5.62628C18.8496 5.62628 16.6118 5.66984 15.0275 5.66984C12.6511 5.66984 12.9917 6.2877 13.1026 7.88783C14.1941 8.10384 15.2405 8.50575 16.1959 9.07604C17.0843 9.58319 17.8207 10.319 18.3285 11.2071C18.8362 12.0952 19.0969 13.103 19.0833 14.1259C19.0833 14.217 19.0833 14.3081 19.0833 14.3913L19.5427 15.0765C19.7875 15.4805 19.9486 15.9295 20.0167 16.3969C20.0847 16.8642 20.0582 17.3405 19.9388 17.7975C19.8063 18.4473 19.5272 19.0582 19.1229 19.5838L19.0833 20.6413C19.0505 21.2937 18.8775 21.9315 18.5761 22.5111C18.2747 23.0906 17.8519 23.5985 17.3366 24H21.1468H24.1728L25.7808 7.31748C25.8165 6.42633 25.9234 5.78866 24.8778 5.71737Z" fill="#502314"></path>
<path d="M15.5741 1.87558L18.0931 2.55683L18.1169 3.00439C18.1446 3.49156 18.1684 3.97872 18.1961 4.46589C18.8364 4.58291 19.4926 4.58291 20.1328 4.46589C20.1051 3.9312 20.0734 3.39648 20.0457 2.86179C20.0457 2.59246 20.022 2.31917 20.0022 2.04588C19.9998 1.79993 19.9264 1.55989 19.7908 1.3547C19.6552 1.1495 19.4631 0.987896 19.2377 0.889366C18.7208 0.702083 18.1914 0.551202 17.6535 0.437841L16.0692 0.00613769C15.6018 -0.124565 15.5741 1.87558 15.5741 1.87558Z" fill="#502314"></path>
<path d="M15.1583 20.9186C14.8968 20.9186 14.6671 20.9186 14.4968 20.9186C13.0472 20.8631 12.0214 20.8394 11.2728 20.8394C10.647 20.8394 10.2906 20.8394 9.91429 20.875C9.53802 20.9107 8.99541 20.9225 8.08841 20.9225C7.29627 20.9225 6.32591 20.9225 5.05452 20.8671H4.86439C3.80994 20.8749 2.7608 20.7172 1.75525 20.3997C1.72921 20.5889 1.72921 20.7808 1.75525 20.9701C1.82874 21.5008 2.03396 22.0046 2.35221 22.4356C2.67046 22.8667 3.09159 23.2111 3.57717 23.4376C4.43771 23.7658 5.35983 23.901 6.27837 23.8336H13.4076C14.4176 23.8336 15.4632 23.8337 16.3821 23.3069C16.8425 23.0223 17.227 22.6305 17.5029 22.1649C17.7788 21.6993 17.9379 21.1739 17.9664 20.6334C17.0481 20.8582 16.103 20.9542 15.1583 20.9186Z" fill="#502314"></path>
<path d="M5.09406 19.5165C6.47239 19.5561 7.40711 19.5719 8.08835 19.5719C9.75184 19.5719 9.89047 19.4848 11.2569 19.4848C11.9382 19.4848 12.9204 19.4848 14.5324 19.568C14.6908 19.568 14.9008 19.568 15.1424 19.568C16.1008 19.568 17.5465 19.4927 17.9703 19.1363C18.7624 18.4788 19.2536 16.7242 18.5802 15.7182C18.2537 15.9867 17.866 16.1703 17.4515 16.2529C17.0005 16.3312 16.5423 16.3604 16.085 16.34C15.0988 16.34 13.8353 16.2846 13.471 16.2687C12.4649 16.2212 11.6768 16.2014 11.0668 16.2014C10.5372 16.1925 10.0076 16.2229 9.48252 16.2925C8.88765 16.3692 8.28806 16.4037 7.68832 16.3955C6.89618 16.3955 5.76738 16.3559 4.27419 16.2727C3.87812 16.2727 3.57315 16.2489 3.28402 16.2489C2.58693 16.2489 1.67202 16.2489 1.06604 15.635C0.848718 16.1197 0.749606 16.6492 0.776888 17.1797C0.784809 19.4967 3.58899 19.4729 5.09406 19.5165Z" fill="#502314"></path>
<path d="M1.74731 13.5993C1.74731 14.4509 1.89781 14.7598 2.30973 14.8707C2.85694 14.9448 3.40957 14.9713 3.96136 14.9499H3.99699H4.35743C5.96547 15.041 6.99129 15.0727 7.6963 15.0727C9.439 15.0727 9.22116 14.8747 11.0827 14.8747C11.661 14.8747 12.4412 14.8945 13.5462 14.942C13.8433 14.942 15.1305 15.0133 16.1009 15.0133C16.4596 15.0239 16.8186 15.0053 17.1743 14.9578L17.3604 14.9064L17.5069 14.8509C17.6519 14.7964 17.7746 14.6952 17.8556 14.5632C17.9367 14.4313 17.9714 14.2761 17.9545 14.1221C17.9545 10.4941 14.3899 8.69202 9.86675 8.69202C7.79134 8.70786 1.74731 9.26236 1.74731 13.5993Z" fill="#502314"></path>
</svg>
