<svg width="23" height="22" viewBox="0 0 23 22" fill="none" xmlns="http://www.w3.org/2000/svg">
<path d="M21.6877 5.02538C20.7582 4.96271 19.5328 4.94531 18.2516 4.94531C16.3891 4.94531 14.4222 4.9836 13.0297 4.9836C10.9409 4.9836 11.2402 5.52668 11.3377 6.93313C12.2971 7.123 13.2168 7.47626 14.0566 7.97752C14.8375 8.42329 15.4848 9.07008 15.9311 9.85066C16.3774 10.6312 16.6065 11.5171 16.5945 12.4162C16.5945 12.4963 16.5945 12.5763 16.5945 12.6495L16.9983 13.2517C17.2135 13.6068 17.3551 14.0014 17.4149 14.4123C17.4747 14.8231 17.4514 15.2417 17.3465 15.6434C17.23 16.2145 16.9847 16.7515 16.6293 17.2135L16.5945 18.143C16.5657 18.7164 16.4137 19.277 16.1487 19.7864C15.8838 20.2959 15.5122 20.7422 15.0592 21.0951H18.4083H21.068L22.4814 6.43182C22.5127 5.64852 22.6067 5.08804 21.6877 5.02538Z" fill="#D62300"></path>
<path d="M13.5101 1.64856L15.7242 2.24736L15.7451 2.64075C15.7695 3.06895 15.7904 3.49715 15.8148 3.92535C16.3776 4.02821 16.9543 4.02821 17.5171 3.92535C17.4927 3.45538 17.4649 2.98538 17.4405 2.51541C17.4405 2.27868 17.4196 2.03847 17.4022 1.79826C17.4002 1.58207 17.3357 1.37109 17.2165 1.19073C17.0973 1.01037 16.9284 0.868324 16.7303 0.78172C16.276 0.617105 15.8107 0.484486 15.3378 0.384846L13.9453 0.0053948C13.5345 -0.109488 13.5101 1.64856 13.5101 1.64856Z" fill="#D62300"></path>
<path d="M13.1446 18.3867C12.9148 18.3867 12.7129 18.3867 12.5632 18.3867C11.2891 18.3379 10.3874 18.317 9.72943 18.317C9.17938 18.317 8.86607 18.317 8.53534 18.3484C8.20462 18.3797 7.72769 18.3901 6.93046 18.3901C6.2342 18.3901 5.38129 18.3901 4.26379 18.3414H4.09667C3.16984 18.3483 2.24769 18.2097 1.36385 17.9306C1.34096 18.0969 1.34096 18.2656 1.36385 18.4319C1.42844 18.8984 1.60882 19.3413 1.88855 19.7201C2.16828 20.099 2.53844 20.4017 2.96524 20.6008C3.72163 20.8892 4.53214 21.0081 5.3395 20.9489H11.6059C12.4936 20.9489 13.4127 20.9489 14.2203 20.4859C14.625 20.2358 14.963 19.8914 15.2055 19.4821C15.448 19.0729 15.5878 18.611 15.6129 18.136C14.8057 18.3336 13.975 18.418 13.1446 18.3867Z" fill="#D62300"></path>
<path d="M4.29853 17.1543C5.51003 17.1891 6.33161 17.203 6.9304 17.203C8.39255 17.203 8.5144 17.1265 9.71545 17.1265C10.3142 17.1265 11.1776 17.1265 12.5945 17.1996C12.7338 17.1996 12.9183 17.1996 13.1306 17.1996C13.9731 17.1996 15.2438 17.1334 15.6163 16.8201C16.3125 16.2422 16.7442 14.7 16.1524 13.8157C15.8654 14.0517 15.5246 14.2131 15.1602 14.2857C14.7638 14.3545 14.3611 14.3802 13.9592 14.3623C13.0923 14.3623 11.9818 14.3136 11.6615 14.2996C10.7773 14.2579 10.0845 14.2405 9.54835 14.2405C9.08284 14.2326 8.61738 14.2594 8.15583 14.3205C7.63295 14.388 7.10594 14.4182 6.57878 14.411C5.88252 14.411 4.89035 14.3762 3.5779 14.3031C3.22976 14.3031 2.9617 14.2822 2.70757 14.2822C2.09486 14.2822 1.29068 14.2822 0.758041 13.7426C0.567027 14.1687 0.479911 14.634 0.503891 15.1003C0.510854 17.1369 2.97563 17.116 4.29853 17.1543Z" fill="#D62300"></path>
<path d="M1.35681 11.9533C1.35681 12.7018 1.4891 12.9733 1.85115 13.0708C2.33214 13.1359 2.81787 13.1592 3.30287 13.1404H3.33419H3.65101C5.06442 13.2205 5.96608 13.2483 6.58575 13.2483C8.11753 13.2483 7.92605 13.0743 9.56227 13.0743C10.0705 13.0743 10.7563 13.0917 11.7276 13.1335C11.9887 13.1335 13.1202 13.1961 13.9731 13.1961C14.2884 13.2054 14.6039 13.1891 14.9165 13.1474L15.0801 13.1021L15.2089 13.0534C15.3364 13.0055 15.4442 12.9165 15.5154 12.8005C15.5867 12.6845 15.6172 12.5481 15.6023 12.4128C15.6023 9.22396 12.4692 7.63995 8.4935 7.63995C6.66929 7.65388 1.35681 8.14127 1.35681 11.9533Z" fill="#D62300"></path>
</svg>
