<svg width="25" height="24" viewBox="0 0 25 24" fill="none" xmlns="http://www.w3.org/2000/svg">
<rect x="0.5" y="2.59457" width="22" height="21.4054" rx="2" fill="#502314"></rect>
<path d="M7.55849 16.8757H7.81449C8.05449 16.8757 8.19849 16.7477 8.18249 16.4917C8.14249 15.8037 8.11849 15.2597 8.11849 14.4437V13.7077C8.11849 12.8917 8.14249 12.2917 8.18249 11.6037C8.19849 11.3477 8.03049 11.2197 7.79849 11.2197C7.57449 11.2197 7.45449 11.3157 7.35049 11.6197C7.20649 12.0517 6.97449 12.2837 6.48649 12.2997C6.28649 12.3077 6.19049 12.4277 6.19049 12.5957V12.7637C6.19049 12.9317 6.31849 13.0597 6.48649 13.0597C6.83849 13.0597 7.03849 13.0117 7.24649 12.8277C7.25449 13.0357 7.25449 13.4357 7.25449 13.5797V14.4437C7.25449 15.2597 7.23049 15.8037 7.19049 16.4917C7.17449 16.7477 7.31849 16.8757 7.55849 16.8757ZM12.1701 16.0677C11.4901 16.0997 10.8981 16.1077 10.258 16.1077C11.7461 15.0677 12.4501 14.0517 12.4501 12.8837C12.4501 11.8197 11.7461 11.1637 10.682 11.1637C9.82605 11.1637 9.17805 11.6437 8.99405 12.4437C8.96205 12.5877 9.03405 12.7317 9.17805 12.7797L9.36205 12.8437C9.53005 12.8997 9.68205 12.8197 9.73805 12.6437C9.88205 12.2117 10.162 11.9317 10.682 11.9317C11.258 11.9317 11.5861 12.3077 11.5861 12.9797C11.5861 13.8117 11.1061 14.7397 9.33005 15.9957C9.17805 16.0997 9.10605 16.2757 9.10605 16.4437V16.5477C9.10605 16.7317 9.25005 16.8757 9.43405 16.8757H12.186C12.3621 16.8757 12.498 16.7397 12.498 16.5637V16.3797C12.498 16.1957 12.3541 16.0597 12.1701 16.0677ZM14.9051 16.9877C16.0251 16.9877 16.7691 16.1077 16.7691 15.1237C16.7691 14.1157 16.0731 13.6357 15.3691 13.4437C15.6171 13.0997 15.9851 12.6277 16.2971 12.2677C16.4251 12.1237 16.4891 11.9637 16.4891 11.7797V11.6037C16.4891 11.4197 16.3451 11.2757 16.1611 11.2757H13.5051C13.3211 11.2757 13.1771 11.4197 13.1771 11.6037V11.7477C13.1771 11.9317 13.3211 12.0837 13.5051 12.0757C14.1371 12.0517 14.9291 12.0437 15.5611 12.0437C15.2731 12.4517 14.9371 12.8677 14.5531 13.3157C14.4651 13.4117 14.3931 13.5637 14.4251 13.6917L14.4411 13.7557C14.4891 13.9477 14.6491 14.0437 14.8571 14.0757C15.6011 14.1797 15.9051 14.5717 15.9051 15.1637C15.9051 15.8837 15.4491 16.2197 14.9211 16.2197C14.3131 16.2197 14.0091 15.9237 13.8171 15.3717C13.7531 15.1957 13.5851 15.1077 13.3851 15.1957L13.2171 15.2757C13.0411 15.3477 12.9851 15.4917 13.0331 15.6517C13.2731 16.4597 13.9691 16.9877 14.9051 16.9877Z" fill="#F5EBDC"></path>
<ellipse cx="20.2894" cy="4.32433" rx="4.21053" ry="4.32433" fill="#D62300"></ellipse>
</svg>
