<svg width="24" height="24" viewBox="0 0 24 24" fill="none" xmlns="http://www.w3.org/2000/svg">
<path fill-rule="evenodd" clip-rule="evenodd" d="M21.1728 9.28635C21.1682 8.83182 20.9535 8.4089 20.591 8.1347L12.8724 2.29746C12.3426 1.89685 11.6111 1.9015 11.0859 2.30769L3.32557 8.32618C2.97143 8.60038 2.76415 9.02051 2.75579 9.46853C2.72233 11.3275 2.44441 19.7209 2.5104 20.5277C2.59777 21.6087 3.31906 21.855 3.95112 21.855C6.44961 21.855 7.79831 21.8987 9.21765 21.9396V16.7C9.21672 16.6935 9.21579 16.6879 9.21579 16.6824C9.21579 16.6758 9.21672 16.6703 9.21765 16.6638V16.6628C9.22787 15.1338 10.4687 13.8967 11.9996 13.8967C13.5314 13.8967 14.7723 15.1338 14.7825 16.6628V16.6638C14.7825 16.6703 14.7844 16.6758 14.7844 16.6824C14.7844 16.6879 14.7825 16.6935 14.7825 16.7V22C16.253 21.9842 18.4392 21.9461 19.1159 21.8875C19.7842 21.8308 21.1115 21.947 21.4071 21.1291C21.4991 20.8781 21.5 20.602 21.5 20.3334C21.5009 18.7839 21.197 11.5934 21.1728 9.28635Z" fill="#D62300"></path>
</svg>
