<svg width="24" height="24" viewBox="0 0 24 24" fill="none" xmlns="http://www.w3.org/2000/svg">
<path d="M22.0366 22.3255C21.0802 19.5334 20.0855 16.9487 19.0025 14.3832L18.8604 14.4907C18.373 14.8555 17.8595 15.1841 17.3241 15.4739C15.892 16.2595 14.3146 16.7444 12.6885 16.8988C13.5872 18.8882 14.4705 20.8853 15.5344 23.4739C15.6073 23.6582 15.7802 24 15.7802 24L17.7581 21.158C17.8552 21.0566 17.9826 20.9896 18.1211 20.9667C18.2596 20.9439 18.4017 20.9665 18.5262 21.0313L22.1902 22.8825L22.0366 22.3255Z" fill="#502314"></path>
<path d="M7.60734 16.1383C6.94863 15.7721 6.33507 15.3299 5.7792 14.821C5.58717 14.6481 5.39511 14.4715 5.22228 14.2833C4.12003 16.8988 3.11378 19.4989 2.14979 22.3256L2 22.8825L5.89823 20.9199C5.97032 20.8915 6.04852 20.8823 6.12524 20.8931C6.20195 20.9038 6.27458 20.9342 6.33607 20.9813L8.64044 23.47C8.67672 23.4307 8.7077 23.3868 8.73261 23.3395C9.81566 20.6895 10.6529 18.796 11.4671 16.9487C10.9156 16.9466 10.3649 16.9042 9.81949 16.822C9.04768 16.7257 8.29889 16.4943 7.60734 16.1383Z" fill="#502314"></path>
<path fill-rule="evenodd" clip-rule="evenodd" d="M19.9386 7.96544C19.9378 6.38943 19.4698 4.84906 18.5936 3.53903C17.7175 2.22899 16.4726 1.20813 15.0163 0.605542C13.5601 0.00295497 11.9578 -0.154336 10.4122 0.153594C8.86654 0.461524 7.44693 1.22083 6.33279 2.33551C5.21865 3.45018 4.46003 4.87019 4.15285 6.41597C3.84566 7.96176 4.00371 9.56391 4.607 11.0199C5.21029 12.4759 6.23172 13.7202 7.54217 14.5958C8.85263 15.4713 10.3933 15.9386 11.9693 15.9386C14.0832 15.9375 16.1102 15.0971 17.6047 13.6019C19.0991 12.1068 19.9386 10.0794 19.9386 7.96544ZM8.71442 6.34709C8.33934 6.16015 7.92418 6.5087 8.01185 6.93691L8.75842 10.5832C8.80823 10.8264 9.0119 11 9.24748 11H15.3221C15.5568 11 15.76 10.8277 15.8106 10.5856L16.5591 7.01312C16.6467 6.59489 16.2518 6.24601 15.8776 6.41114L14.1923 7.15502C13.9584 7.25825 13.6884 7.16042 13.5638 6.92726L12.6769 5.26862C12.4873 4.91406 12.0054 4.90959 11.81 5.26058L10.8955 6.90277C10.7643 7.13837 10.4847 7.22944 10.2507 7.11281L8.71442 6.34709Z" fill="#502314"></path>
</svg>
